# xmcd CD database file
#
# Track frame offsets:
#	150
#	19581
#	37284
#	50240
#	68223
#	88348
#	100566
#	116235
#	128276
#	143216
#	157467
#	170034
#	184729
#	207221
#	219929
#	238251
#
# Disc length: 3377 seconds
#
# Revision: 0
# Processed by: cddbd v1.5.2PL0 Copyright (c) Steve Scherf et al.
# Submitted via: CDex 1.51
#
DISCID=f30d2f10
DTITLE=The Bluebones - Monkey
DYEAR=1900
DGENRE=Blues
TTITLE0=Boogie Baby
TTITLE1=Back In The Night
TTITLE2=Rock´n´Roll Junkie
TTITLE3=Monkey
TTITLE4=Mistake
TTITLE5=Home
TTITLE6=Own Blues
TTITLE7=Talking ´bout You
TTITLE8=Fool For My Baby
TTITLE9=Jealousy
TTITLE10=Great Balls Of Fire
TTITLE11=She Does It Right
TTITLE12=Pain
TTITLE13=Don´t Worry Baby
TTITLE14=Three Time Loser
TTITLE15=Prodigal Son
EXTD=
EXTT0=
EXTT1=
EXTT2=
EXTT3=
EXTT4=
EXTT5=
EXTT6=
EXTT7=
EXTT8=
EXTT9=
EXTT10=
EXTT11=
EXTT12=
EXTT13=
EXTT14=
EXTT15=
PLAYORDER=
